<?xml version="1.0" encoding="UTF-8"?>
<svg width="328px" height="64px" viewBox="0 0 328 64" version="1.1" xmlns="http://www.w3.org/2000/svg" xmlns:xlink="http://www.w3.org/1999/xlink">
    <!-- Generator: Sketch 40.3 (33839) - http://www.bohemiancoding.com/sketch -->
    <title>auronet final logo</title>
    <desc>Created with Sketch.</desc>
    <defs></defs>
    <g id="Page-1" stroke="none" stroke-width="1" fill="none" fill-rule="evenodd">
        <g id="auronet-final-logo" transform="translate(0.000000, 1.000000)">
            <g id="small-av-symbol-final-copy-3" transform="translate(136.000000, 1.000000)">
                <g id="Group">
                    <path d="M40.472249,33.2363637 C40.472249,33.2363637 59.0316409,39.1968216 57.241143,38.6217926 C51.6515116,36.8266497 40.472249,33.2363637 40.472249,33.2363637 C40.8343581,32.158235 41.0412777,31.0287668 41.0412777,29.8479591 C41.0412777,26.2285269 39.2307319,22.9941407 36.4890484,21.0432411 C36.4890484,21.0432411 47.7885732,5.63160333 46.5970593,7.25673195 C43.2277223,11.852235 36.4890484,21.0432411 36.4890484,21.0432411 C34.6785027,19.7340848 32.4541179,18.9383231 30.0745436,18.9383231 C27.6432393,18.9383231 25.4188546,19.7084151 23.5824439,21.0432411 C23.5824439,21.0432411 12.136592,5.37678853 13.2420099,6.88734461 C16.6888212,11.5974202 23.5824439,21.0175714 23.5824439,21.0175714 C20.8407604,22.9941407 19.0560796,26.2285269 19.0560796,29.8222894 C19.0560796,31.0030971 19.2371342,32.1325653 19.5992433,33.210694 C19.5992433,33.210694 0.356381596,39.4302956 1.81807705,38.9591688 C7.73651082,37.0515671 19.5733784,33.2363637 19.5733784,33.2363637 C21.0476799,37.5745484 25.1860701,40.7575951 30.0745436,40.7575951 C34.9112871,40.7575951 39.0496774,37.5745484 40.472249,33.2363637 Z M30.0684411,39.509434 L30.0684411,59.8867925 L30.0684411,39.509434 L30.0684411,39.509434 L30.0684411,39.509434 Z M59.8859316,29.7962264 C59.8859316,13.4037736 46.4258555,0.0905660377 29.9543726,0.0905660377 C13.460076,0.0905660377 0.0228136882,13.4490566 0.0228136882,29.8188679 C0.0228136882,46.1886792 13.460076,59.5245283 29.9543726,59.5245283 C46.4030418,59.5245283 59.8859316,46.1886792 59.8859316,29.7962264 Z" id="Shape" stroke="#ffffff" stroke-width="4"></path>
                    <path d="M26.9298189,29.9957787 C26.9298189,31.6473181 28.3165678,33.0236009 29.9806664,33.0236009 C31.6794337,33.0236009 33.0315138,31.6473181 33.0315138,29.9957787 C33.0315138,28.3442393 31.6794337,26.9679565 29.9806664,26.9679565 C28.281899,26.9679565 26.9298189,28.3442393 26.9298189,29.9957787 Z" id="Shape" fill="#ffffff"></path>
                </g>
            </g>
            <path d="M40.2773438,61 L36.1347656,48.3261719 L13.78125,48.3261719 L9.3515625,61 L0.1640625,61 L24.5683594,0.091796875 L26.7421875,0.091796875 L49.3828125,61 L40.2773438,61 Z M25.265625,15.8417969 L15.9550781,42.296875 L33.796875,42.296875 L25.265625,15.8417969 Z M63.4667969,17.0722656 L63.4667969,45.0859375 C63.4667969,51.8672214 66.4062206,55.2578125 72.2851562,55.2578125 C74.8554816,55.2578125 77.2070206,54.5195386 79.3398438,53.0429688 C81.4726669,51.5663989 82.880856,49.8574316 83.5644531,47.9160156 L83.5644531,17.0722656 L91.3574219,17.0722656 L91.3574219,61 L83.5644531,61 L83.5644531,54.9296875 C82.6894487,56.6523524 80.9326304,58.2314381 78.2939453,59.6669922 C75.6552602,61.1025462 73.0781376,61.8203125 70.5625,61.8203125 C65.7499759,61.8203125 62.0654425,60.4394669 59.5087891,57.6777344 C56.9521357,54.9160018 55.6738281,50.9922129 55.6738281,45.90625 L55.6738281,17.0722656 L63.4667969,17.0722656 Z M126.851562,24.578125 C125.156242,23.4023379 123.447274,22.8144531 121.724609,22.8144531 C118.962877,22.8144531 116.549815,24.0859248 114.485352,26.6289062 C112.420888,29.1718877 111.388672,32.2343571 111.388672,35.8164062 L111.388672,61 L103.595703,61 L103.595703,17.0722656 L111.388672,17.0722656 L111.388672,24.0859375 C114.232436,18.8632551 118.457003,16.2519531 124.0625,16.2519531 C125.457038,16.2519531 127.466784,16.4980444 130.091797,16.9902344 L126.851562,24.578125 Z" id="Aur-Copy-2" fill="#ffffff"></path>
            <path d="M234.566406,61 L234.566406,35.4472656 C234.566406,30.771461 233.862312,27.4970797 232.454102,25.6240234 C231.045891,23.7509672 228.687517,22.8144531 225.378906,22.8144531 C223.601554,22.8144531 221.742197,23.3476509 219.800781,24.4140625 C217.859365,25.4804741 216.369146,26.792961 215.330078,28.3515625 L215.330078,61 L207.537109,61 L207.537109,17.0722656 L212.869141,17.0722656 L215.330078,22.7324219 C217.900403,18.4120878 222.097627,16.2519531 227.921875,16.2519531 C237.546923,16.2519531 242.359375,22.1034571 242.359375,33.8066406 L242.359375,61 L234.566406,61 Z M291.429688,39.7949219 L259.765625,39.7949219 C259.765625,44.9355726 261.173814,48.8867049 263.990234,51.6484375 C266.478528,54.0546995 269.677715,55.2578125 273.587891,55.2578125 C278.044944,55.2578125 281.763657,53.9589974 284.744141,51.3613281 L288.025391,56.9804688 C286.82226,58.1835998 284.976575,59.2226519 282.488281,60.0976562 C279.371078,61.2460995 275.898457,61.8203125 272.070312,61.8203125 C266.546847,61.8203125 261.857441,59.9472844 258.001953,56.2011719 C253.708963,52.072245 251.5625,46.5215192 251.5625,39.5488281 C251.5625,32.3026981 253.76365,26.4922094 258.166016,22.1171875 C262.103535,18.2070117 266.765598,16.2519531 272.152344,16.2519531 C278.414094,16.2519531 283.322248,18.0156074 286.876953,21.5429688 C290.322283,24.9336107 292.044922,29.4316126 292.044922,35.0371094 C292.044922,36.7597742 291.839846,38.3456959 291.429688,39.7949219 L291.429688,39.7949219 Z M272.521484,22.8144531 C269.048811,22.8144531 266.136731,23.9355357 263.785156,26.1777344 C261.542958,28.3105575 260.271486,30.9628748 259.970703,34.1347656 L284.292969,34.1347656 C284.292969,30.9902187 283.308604,28.3652449 281.339844,26.2597656 C279.179677,23.9628791 276.240253,22.8144531 272.521484,22.8144531 L272.521484,22.8144531 Z M304.037109,23.2246094 L298.951172,23.2246094 L298.951172,17.0722656 L304.037109,17.0722656 L304.037109,7.88476562 L311.830078,4.890625 L311.830078,17.0722656 L323.888672,17.0722656 L323.888672,23.2246094 L311.830078,23.2246094 L311.830078,45.0449219 C311.830078,48.7363466 312.452142,51.3613203 313.696289,52.9199219 C314.940436,54.4785234 316.943346,55.2578125 319.705078,55.2578125 C321.701182,55.2578125 323.765614,54.7519582 325.898438,53.7402344 L327.046875,60.5898438 C323.820296,61.4101604 320.279316,61.8203125 316.423828,61.8203125 C312.951155,61.8203125 310.018567,60.5283332 307.625977,57.9443359 C305.233386,55.3603386 304.037109,52.0996291 304.037109,48.1621094 L304.037109,23.2246094 Z" id="net-copy-4" fill="#ffffff"></path>
        </g>
    </g>
</svg>
